# xmcd
#
# Track frame offsets:
#	150
#	20842
#	36484
#	59295
#	79610
#	100532
#	122632
#	142632
#	161853
#	174430
#	207724
#
# Disc length: 2997 seconds
#
# Revision: 1
# Processed by: cddbd v1.5PL3 Copyright (c) Steve Scherf et al.
# Submitted via: audiograbber 1.82.02
#
DISCID=920bb30b
DTITLE=Various Artist - 10th Anniversary Sampler 2004
DYEAR=2004
DGENRE=Blues
TTITLE0=Imperial Crowns - Lil' Death
TTITLE1=Ana Popovic - Comfort to the Soul
TTITLE2=Omar and the Howlers - Boogie Man
TTITLE3=Walter Trout - Jericho Road
TTITLE4=Michael Hill's Blues Mob - Something in the Sky
TTITLE5=Aynsley Lister - Sometimes it Gets 2 Me
TTITLE6=Canned Heat - It Don't Matter
TTITLE7=Luther Allison - I Wanna Be With You
TTITLE8=Candye Kane - I Got A Secret
TTITLE9=Ian Parker - Awake At Night
TTITLE10=Friend'n Fellow - Angel
EXTD=
EXTT0=
EXTT1=
EXTT2=
EXTT3=
EXTT4=
EXTT5=
EXTT6=
EXTT7=
EXTT8=
EXTT9=
EXTT10=
PLAYORDER=
